<?xml version="1.0" encoding="UTF-8"?>
<svg xmlns="http://www.w3.org/2000/svg" width="1000" height="380" viewBox="0 0 1000 380">
  <defs>
    <marker id="arrow" markerWidth="10" markerHeight="10" refX="10" refY="5" orient="auto">
      <path d="M0,0 L10,5 L0,10 z" fill="#333" />
    </marker>
    <style>
      .box { fill:#f7fbff; stroke:#2b6cb0; stroke-width:2; rx:8; }
      .small { font: 12px sans-serif; fill:#0b2a66 }
      .title { font: 14px sans-serif; font-weight:700; fill:#07335a }
      .arrow { stroke:#333; stroke-width:2; fill:none; marker-end:url(#arrow) }
    </style>
  </defs>

  <!-- Client -->
  <rect x="20" y="30" width="160" height="60" class="box" />
  <text x="100" y="60" text-anchor="middle" class="title">Client</text>
  <text x="100" y="76" text-anchor="middle" class="small">POST /batch</text>

  <!-- API -->
  <rect x="220" y="20" width="220" height="90" class="box" />
  <text x="330" y="45" text-anchor="middle" class="title">FastAPI</text>
  <text x="330" y="64" text-anchor="middle" class="small">/batch → BackgroundTasks</text>

  <!-- Worker Pool -->
  <rect x="500" y="10" width="260" height="120" class="box" />
  <text x="630" y="36" text-anchor="middle" class="title">Worker Pool</text>
  <text x="630" y="56" text-anchor="middle" class="small">asyncio tasks + Semaphore</text>
  <text x="630" y="74" text-anchor="middle" class="small">retries/backoff on 429</text>

  <!-- Mock External -->
  <rect x="780" y="30" width="180" height="60" class="box" />
  <text x="870" y="50" text-anchor="middle" class="title">Mock External API</text>
  <text x="870" y="66" text-anchor="middle" class="small">simulates 429 / responses</text>

  <!-- Database -->
  <rect x="460" y="160" width="300" height="90" class="box" />
  <text x="610" y="185" text-anchor="middle" class="title">SQLite (data/db.sqlite3)</text>
  <text x="610" y="204" text-anchor="middle" class="small">progress + results (single source of truth)</text>

  <!-- Status API -->
  <rect x="220" y="160" width="200" height="70" class="box" />
  <text x="320" y="185" text-anchor="middle" class="title">Status / Results API</text>
  <text x="320" y="203" text-anchor="middle" class="small">reads from SQLite</text>

  <!-- Arrows -->
  <path d="M180,60 L220,60" class="arrow" />
  <path d="M440,60 L500,60" class="arrow" />
  <path d="M760,60 L780,60" class="arrow" />

  <!-- Worker to DB -->
  <path d="M630,130 L630,160" class="arrow" />

  <!-- API to Status/Results (reads DB) -->
  <path d="M330,110 L330,160" class="arrow" />
  <path d="M520,205 L420,190" class="arrow" />

  <!-- Results endpoint back to client -->
  <path d="M420,270 L320,270" class="arrow" />
  <rect x="260" y="250" width="180" height="48" class="box" />
  <text x="350" y="281" text-anchor="middle" class="small">GET /batch/{id}/results</text>

  <!-- Notes -->
  <text x="20" y="350" class="small">Notes: background processing, bounded concurrency, retries/backoff, SQLite as the single source of truth for progress/results</text>
</svg>
